<svg xmlns="http://www.w3.org/2000/svg" xmlns:xlink="http://www.w3.org/1999/xlink" id="Layer_1" x="0" y="0" version="1.1" viewBox="0 0 68.4 67.2" xml:space="preserve" style="enable-background:new 0 0 68.4 67.2"><style type="text/css">.st0{fill:#0477a4}</style><path d="M27.4,6.2c-2,10.5-10.2,18.6-20.6,20.7c6.2,0.6,12.2,2.4,17.7,5.2c3.1-2.3,5.9-5.1,8.2-8.2	C29.8,18.3,28,12.3,27.4,6.2z" class="st0"/><path d="M66,27.3c-14.4,0-26-11.6-26-26H27.9C27.9,22.3,45,39.4,66,39.4V27.3z" class="st0"/><path d="M1.9,39.4c14.4,0,26,11.6,26,26H40c0-21.1-17.1-38.1-38.2-38.2V39.4z" class="st0"/><path d="M40.5,60.5c2-10.4,10.2-18.6,20.6-20.6C55,39.3,49,37.5,43.5,34.7c-3.1,2.3-5.9,5.1-8.2,8.2	C38.1,48.4,39.9,54.4,40.5,60.5z" class="st0"/></svg>